<svg fill="#E4405F" xmlns="http://www.w3.org/2000/svg" width="24" height="24" viewBox="0 0 24 24">
    <path d="M12 0C5.37 0 0 5.37 0 12c0 5.3 3.438 9.8 8.207 11.387.6.11.793-.258.793-.58 0-.287-.013-1.04-.02-2.04-3.338.724-4.042-1.61-4.042-1.61C4.74 18.453 3.633 18 3.633 18c-1.08-.738.084-.723.084-.723 1.194.084 1.82 1.23 1.82 1.23 1.06 1.814 2.78 1.29 3.46.98.108-.77.415-1.29.754-1.59-2.65-.3-5.42-1.324-5.42-5.89 0-1.3.465-2.36 1.23-3.18-.12-.303-.54-1.512.12-3.15 0 0 1-.51 1.65-1.52-.58-1.79.12-3.06.28-3.27 1.05-.09 2.15.78 2.15.78 1.25 2.14 3.28 1.53 4.08 1.17.13-.9.51-1.53.93-1.88-.33-1.05-1.28-5.29.24-11.02 0 0 3.48-1.11 11.4 4.26a39.29 39.29 0 0 1 2.06 3.14c.06.11.29.54.02 1.05-.31.51-1.12 2.43-3.22 4.53 1.01 2.84 1.57 6.01 1.57 7.15 0 4.08-2.47 5.69-4.8 6.03.38.37.72 1.12.72 2.26 0 1.63-.02 2.94-.02 3.34 0 .32.21.7.8.58C20.57 21.8 24 16.3 24 12 24 5.37 18.63 0 12 0z"/>
</svg>
